<svg width="23" height="20" viewBox="0 0 23 20" fill="none" xmlns="http://www.w3.org/2000/svg">
<path d="M0.715827 12.7417C0.905677 12.7417 1.08775 12.8171 1.22199 12.9514C1.35624 13.0856 1.43165 13.2677 1.43165 13.4576V17.0367C1.43165 17.4164 1.58249 17.7805 1.85098 18.049C2.11946 18.3175 2.48361 18.4683 2.86331 18.4683H20.0432C20.4229 18.4683 20.787 18.3175 21.0555 18.049C21.324 17.7805 21.4748 17.4164 21.4748 17.0367V13.4576C21.4748 13.2677 21.5502 13.0856 21.6845 12.9514C21.8187 12.8171 22.0008 12.7417 22.1906 12.7417C22.3805 12.7417 22.5626 12.8171 22.6968 12.9514C22.8311 13.0856 22.9065 13.2677 22.9065 13.4576V17.0367C22.9065 17.7961 22.6048 18.5244 22.0678 19.0614C21.5309 19.5983 20.8026 19.9 20.0432 19.9H2.86331C2.10391 19.9 1.37562 19.5983 0.838644 19.0614C0.301669 18.5244 0 17.7961 0 17.0367V13.4576C0 13.2677 0.0754173 13.0856 0.209661 12.9514C0.343905 12.8171 0.525978 12.7417 0.715827 12.7417Z" fill="#0080EF"/>
<path d="M10.9463 15.5392C11.0128 15.6058 11.0918 15.6587 11.1787 15.6948C11.2657 15.7309 11.3589 15.7495 11.4531 15.7495C11.5473 15.7495 11.6405 15.7309 11.7275 15.6948C11.8144 15.6587 11.8934 15.6058 11.9599 15.5392L16.2549 11.2442C16.3893 11.1098 16.4648 10.9275 16.4648 10.7374C16.4648 10.5473 16.3893 10.365 16.2549 10.2306C16.1205 10.0962 15.9382 10.0207 15.7481 10.0207C15.558 10.0207 15.3757 10.0962 15.2413 10.2306L12.1689 13.3044V0.715827C12.1689 0.525978 12.0935 0.343905 11.9593 0.209661C11.825 0.0754173 11.643 0 11.4531 0C11.2633 0 11.0812 0.0754173 10.9469 0.209661C10.8127 0.343905 10.7373 0.525978 10.7373 0.715827V13.3044L7.66494 10.2306C7.53053 10.0962 7.34823 10.0207 7.15814 10.0207C6.96805 10.0207 6.78575 10.0962 6.65133 10.2306C6.51692 10.365 6.44141 10.5473 6.44141 10.7374C6.44141 10.9275 6.51692 11.1098 6.65133 11.2442L10.9463 15.5392Z" fill="#0080EF"/>
</svg>
