<svg width="20" height="20" viewBox="0 0 20 20" fill="none" xmlns="http://www.w3.org/2000/svg">
<path fill-rule="evenodd" clip-rule="evenodd" d="M17.8796 4.51333C17.9587 4.63351 17.994 4.77732 17.9794 4.92049C17.9649 5.06366 17.9013 5.19741 17.7996 5.29917L10.1387 12.9592C10.0604 13.0375 9.96258 13.0936 9.8554 13.1217L6.66457 13.955C6.55909 13.9825 6.44826 13.982 6.34306 13.9534C6.23787 13.9248 6.14197 13.8692 6.06489 13.7922C5.98782 13.7151 5.93224 13.6192 5.90368 13.514C5.87511 13.4088 5.87456 13.298 5.90207 13.1925L6.7354 10.0025C6.75973 9.90674 6.80562 9.81781 6.86957 9.7425L14.5587 2.05833C14.6759 1.94129 14.8348 1.87555 15.0004 1.87555C15.166 1.87555 15.3249 1.94129 15.4421 2.05833L17.7996 4.415C17.8295 4.445 17.8563 4.47795 17.8796 4.51333ZM16.4737 4.85667L15.0004 3.38417L7.90207 10.4825L7.38123 12.4767L9.3754 11.9558L16.4737 4.85667Z" fill="#0080EF"/>
<path d="M16.3676 14.3C16.5954 12.3533 16.6681 10.3915 16.5851 8.43332C16.5833 8.38719 16.591 8.34117 16.6078 8.29816C16.6246 8.25514 16.6501 8.21605 16.6826 8.18332L17.5026 7.36332C17.525 7.34079 17.5535 7.3252 17.5845 7.31844C17.6156 7.31168 17.6479 7.31403 17.6777 7.32521C17.7074 7.33638 17.7333 7.35591 17.7522 7.38145C17.7711 7.40698 17.7823 7.43744 17.7843 7.46915C17.9386 9.79518 17.8801 12.1305 17.6093 14.4458C17.4126 16.1308 16.0593 17.4517 14.3818 17.6392C11.4696 17.9617 8.53067 17.9617 5.61846 17.6392C3.94179 17.4517 2.58763 16.1308 2.39096 14.4458C2.04546 11.492 2.04546 8.50797 2.39096 5.55415C2.58763 3.86915 3.94096 2.54832 5.61846 2.36082C7.82877 2.11572 10.0557 2.05635 12.276 2.18332C12.3077 2.1856 12.3382 2.19694 12.3637 2.216C12.3892 2.23505 12.4088 2.26102 12.42 2.29084C12.4312 2.32065 12.4337 2.35306 12.427 2.38422C12.4204 2.41538 12.405 2.44398 12.3826 2.46665L11.5551 3.29332C11.5227 3.32561 11.484 3.35092 11.4415 3.36769C11.3989 3.38446 11.3534 3.39233 11.3076 3.39082C9.45492 3.32784 7.60009 3.39886 5.75763 3.60332C5.21924 3.66291 4.71667 3.90226 4.33109 4.2827C3.94551 4.66314 3.69944 5.16245 3.63263 5.69999C3.2985 8.55692 3.2985 11.4431 3.63263 14.3C3.69944 14.8375 3.94551 15.3368 4.33109 15.7173C4.71667 16.0977 5.21924 16.3371 5.75763 16.3967C8.55346 16.7092 11.4468 16.7092 14.2435 16.3967C14.7818 16.3371 15.2844 16.0977 15.67 15.7173C16.0556 15.3368 16.3008 14.8375 16.3676 14.3Z" fill="#0080EF"/>
</svg>
