<svg width="33" height="30" viewBox="0 0 33 30" fill="none" xmlns="http://www.w3.org/2000/svg">
<path d="M32.4809 1.49992C32.4798 1.89734 32.337 2.27814 32.0837 2.55916C31.8304 2.84019 31.4871 2.99861 31.1288 2.99983H1.38138C1.02279 2.99983 0.67888 2.8418 0.425314 2.56052C0.171749 2.27923 0.0292969 1.89772 0.0292969 1.49992C0.0292969 1.10211 0.171749 0.720604 0.425314 0.439315C0.67888 0.158026 1.02279 8.38306e-09 1.38138 0H31.1292C31.4874 0.00133563 31.8306 0.159804 32.0838 0.440816C32.3371 0.721828 32.4798 1.10256 32.4809 1.49992ZM30.877 27.0002H1.38138C1.02279 27.0002 0.67888 27.1582 0.425314 27.4395C0.171749 27.7208 0.0292969 28.1023 0.0292969 28.5001C0.0292969 28.8979 0.171749 29.2794 0.425314 29.5607C0.67888 29.842 1.02279 30 1.38138 30H30.877C31.2356 30 31.5795 29.842 31.8331 29.5607C32.0866 29.2794 32.2291 28.8979 32.2291 28.5001C32.2291 28.1023 32.0866 27.7208 31.8331 27.4395C31.5795 27.1582 31.2356 27.0002 30.877 27.0002ZM30.6344 13.5001H1.38138C1.02279 13.5001 0.67888 13.6581 0.425314 13.9394C0.171749 14.2207 0.0292969 14.6022 0.0292969 15C0.0292969 15.3978 0.171749 15.7793 0.425314 16.0606C0.67888 16.3419 1.02279 16.4999 1.38138 16.4999H30.6344C30.812 16.4999 30.9878 16.4611 31.1519 16.3857C31.3159 16.3104 31.465 16.1999 31.5905 16.0606C31.7161 15.9213 31.8157 15.756 31.8836 15.574C31.9515 15.392 31.9865 15.197 31.9865 15C31.9865 14.803 31.9515 14.608 31.8836 14.426C31.8157 14.244 31.7161 14.0787 31.5905 13.9394C31.465 13.8001 31.3159 13.6896 31.1519 13.6143C30.9878 13.5389 30.812 13.5001 30.6344 13.5001Z" fill="black"/>
</svg>
