<svg width="47" height="48" viewBox="0 0 47 48" fill="none" xmlns="http://www.w3.org/2000/svg">
<g clip-path="url(#clip0_1036_4429)">
<path d="M41.3586 31.5581C38.5219 38.2643 32.2345 42.7573 25.0664 43.3325C25.0575 43.3336 25.0481 43.3336 25.0392 43.3343C24.5354 43.3748 24.0276 43.396 23.5166 43.396H23.4991C15.7315 43.396 8.7352 38.781 5.67578 31.6399L8.20665 30.5552C10.1832 35.1701 14.0759 38.5544 18.7246 39.9446C17.3207 37.9495 15.601 35.0442 14.4578 31.5222C14.2226 30.7993 14.6192 30.023 15.3424 29.7881C16.0653 29.5533 16.8417 29.9495 17.0765 30.6728C18.4614 34.9388 20.8133 38.2525 22.1236 39.8811V31.0755C22.1236 30.3156 22.7396 29.6999 23.4991 29.6992H23.5166C24.2693 29.7082 24.8767 30.3214 24.8767 31.0755V39.9023C26.187 38.2672 28.5461 34.9352 29.9256 30.6728C30.1594 29.9495 30.9357 29.5533 31.659 29.7871C32.3822 30.0212 32.7785 30.7976 32.5443 31.5205C31.4058 35.0389 29.6932 37.943 28.293 39.941C32.9603 38.5415 36.8573 35.1332 38.8231 30.4856L41.3586 31.5581Z" fill="#A8EBFA"/>
<path d="M41.3564 16.4648L38.8209 17.5376C36.8602 12.9044 32.9785 9.50255 28.3288 8.09691C29.7445 10.11 31.4671 13.0346 32.5948 16.5842C32.8251 17.3082 32.4249 18.0816 31.7002 18.3122C31.5614 18.3559 31.4212 18.3771 31.2824 18.3771C30.699 18.3771 30.1576 18.0038 29.9711 17.4175C28.592 13.0787 26.196 9.72272 24.8757 8.09225V16.8678C24.8757 17.623 24.2682 18.2351 23.5156 18.244H23.498C22.7385 18.2433 22.1225 17.6284 22.1225 16.8678V8.14173C20.7993 9.77615 18.4079 13.1246 17.0342 17.42C16.847 18.0045 16.3066 18.3782 15.7239 18.3782C15.5844 18.3782 15.4432 18.357 15.3037 18.3122C14.5797 18.0809 14.1802 17.3064 14.4126 16.5824C15.5497 13.0227 17.2874 10.0928 18.707 8.08472C14.04 9.48426 10.1419 12.8933 8.17616 17.5412L5.64062 16.4684C7.16137 12.8732 9.67395 9.91384 12.7829 7.85379C15.8907 5.79266 19.5945 4.63086 23.498 4.63086H23.5156C23.9451 4.63086 24.3708 4.64664 24.7946 4.67496L25.2507 4.70975C32.3395 5.34659 38.543 9.81846 41.3564 16.4648Z" fill="#A8EBFA"/>
<path d="M23.5156 18.244V4.63086C23.9452 4.63086 24.3708 4.64664 24.7947 4.67496L25.2508 4.70975C32.3396 5.34659 38.5431 9.81846 41.3565 16.4648L38.821 17.5376C36.8602 12.9044 32.9786 9.50255 28.3289 8.09691C29.7445 10.11 31.4672 13.0346 32.5949 16.5842C32.8251 17.3082 32.4249 18.0816 31.7002 18.3122C31.5615 18.3559 31.4213 18.3771 31.2825 18.3771C30.6991 18.3771 30.1576 18.0038 29.9712 17.4175C28.5921 13.0787 26.196 9.72272 24.8757 8.09225V16.8678C24.8757 17.623 24.2683 18.2351 23.5156 18.244Z" fill="#76E2F8"/>
<path d="M41.3576 31.5581C38.5208 38.2643 32.2335 42.7573 25.0654 43.3325C25.0564 43.3336 25.0471 43.3336 25.0382 43.3343C24.5344 43.3748 24.0266 43.396 23.5156 43.396V29.6992C24.2683 29.7082 24.8757 30.3214 24.8757 31.0755V39.9023C26.186 38.2672 28.5451 34.9352 29.9246 30.6728C30.1583 29.9495 30.9347 29.5533 31.6579 29.7871C32.3812 30.0212 32.7774 30.7976 32.5433 31.5205C31.4048 35.0389 29.6922 37.943 28.2919 39.941C32.9592 38.5415 36.8563 35.1332 38.822 30.4856L41.3576 31.5581Z" fill="#76E2F8"/>
<path d="M47 19.1442V28.8822C47 30.8229 45.4215 32.4024 43.4809 32.4024H3.5202C1.57919 32.4024 0 30.8229 0 28.8822V19.1442C0 17.2032 1.57919 15.624 3.5202 15.624H43.4809C45.4215 15.624 47 17.2032 47 19.1442Z" fill="#6AA9FF"/>
<path d="M46.9991 19.1442V28.8822C46.9991 30.8229 45.4207 32.4024 43.48 32.4024H23.5156V15.624H43.48C45.4207 15.624 46.9991 17.2032 46.9991 19.1442Z" fill="#2682FF"/>
<path d="M6.30469 21.1802C6.30469 20.9221 6.4829 20.6972 6.83933 20.5061C7.19576 20.315 7.5443 20.2196 7.88531 20.2196C8.24641 20.2196 8.46837 20.3433 8.5512 20.5914L9.92995 24.5265L10.9218 21.1957C11.0147 20.8858 11.2779 20.7306 11.7117 20.7306C12.1456 20.7306 12.4088 20.8855 12.5017 21.1957L13.4935 24.5265L14.8723 20.5911C14.9548 20.3433 15.1717 20.2192 15.5231 20.2192C15.8638 20.2192 16.2123 20.3178 16.5687 20.5136C16.9252 20.7101 17.1034 20.9425 17.1034 21.2111C17.1034 21.3247 17.0826 21.4226 17.0413 21.5055L14.6553 27.4701C14.5417 27.7487 14.2318 27.8882 13.7259 27.8882C13.1683 27.8882 12.8373 27.7487 12.7344 27.4701L11.7117 24.7743L10.6894 27.4701C10.5858 27.7487 10.2502 27.8882 9.68217 27.8882C9.18661 27.8882 8.88181 27.7487 8.76814 27.4701L6.38214 21.5055C6.33051 21.3714 6.30469 21.2627 6.30469 21.1802Z" fill="white"/>
<path d="M28.3734 20.513C28.0173 20.3176 27.6684 20.2183 27.3281 20.2183C26.9767 20.2183 26.7602 20.343 26.6777 20.5908L25.2982 24.5259L24.3071 21.1947C24.2135 20.8845 23.9503 20.7303 23.5171 20.7303C23.0833 20.7303 22.8197 20.8845 22.7272 21.1947L21.735 24.5259L20.3559 20.5908C20.2734 20.343 20.0511 20.2183 19.6896 20.2183C19.3493 20.2183 19.0005 20.3147 18.6444 20.5055C18.2876 20.6966 18.1094 20.9214 18.1094 21.1793C18.1094 21.2617 18.1352 21.3711 18.1875 21.5049L20.5732 27.4695C20.6861 27.7485 20.9917 27.888 21.4872 27.888C22.0552 27.888 22.3912 27.7485 22.4941 27.4695L23.5171 24.7737L24.5395 27.4695C24.6424 27.7485 24.9733 27.888 25.5306 27.888C26.0369 27.888 26.3464 27.7485 26.46 27.4695L28.846 21.5049C28.8873 21.4224 28.9084 21.3241 28.9084 21.2105C28.9084 20.9415 28.7302 20.7095 28.3734 20.513Z" fill="white"/>
<path d="M29.9141 21.1802C29.9141 20.9221 30.0923 20.6972 30.4487 20.5061C30.8048 20.315 31.1533 20.2196 31.4943 20.2196C31.8558 20.2196 32.0777 20.3433 32.1606 20.5914L33.5393 24.5265L34.5308 21.1957C34.6237 20.8858 34.8872 20.7306 35.3211 20.7306C35.755 20.7306 36.0182 20.8855 36.1111 21.1957L37.1025 24.5265L38.4817 20.5911C38.5641 20.3433 38.7811 20.2192 39.1321 20.2192C39.4731 20.2192 39.8217 20.3178 40.1781 20.5136C40.5342 20.7101 40.7124 20.9425 40.7124 21.2111C40.7124 21.3247 40.6916 21.4226 40.6507 21.5055L38.2647 27.4701C38.151 27.7487 37.8412 27.8882 37.3353 27.8882C36.7773 27.8882 36.4467 27.7487 36.3434 27.4701L35.3211 24.7743L34.2984 27.4701C34.1952 27.7487 33.8595 27.8882 33.2915 27.8882C32.7956 27.8882 32.4908 27.7487 32.3775 27.4701L29.9915 21.5055C29.9399 21.3714 29.9141 21.2627 29.9141 21.1802Z" fill="#96FFF6"/>
<path d="M28.9069 21.2109C28.9069 21.3246 28.8857 21.4229 28.8445 21.5053L26.4585 27.47C26.3448 27.749 26.0354 27.8885 25.5291 27.8885C24.9718 27.8885 24.6409 27.749 24.5379 27.47L23.5156 24.7742V20.7308C23.9488 20.7308 24.212 20.885 24.3056 21.1952L25.2967 24.5264L26.6762 20.5913C26.7586 20.3435 26.9752 20.2188 27.3266 20.2188C27.6669 20.2188 28.0158 20.3181 28.3719 20.5135C28.7287 20.71 28.9069 20.942 28.9069 21.2109Z" fill="#96FFF6"/>
</g>
<defs>
<clipPath id="clip0_1036_4429">
<rect width="47" height="47" fill="white" transform="translate(0 0.5)"/>
</clipPath>
</defs>
</svg>
