<svg width="32" height="33" viewBox="0 0 32 33" fill="none" xmlns="http://www.w3.org/2000/svg">
<rect x="0.394531" y="0.892578" width="31.2144" height="31.2144" rx="15.6072" fill="#0080EF"/>
<g clip-path="url(#clip0_1036_4776)">
<path d="M18.0339 18.1607C18.0152 18.1956 17.9777 18.2301 17.9777 18.262V21.4992C17.9777 22.0341 17.5275 22.4488 16.9952 22.4488H10.2254C9.69106 22.4488 9.2474 22.0335 9.2474 21.4992V12.8302C9.2474 12.2964 9.69106 11.8487 10.2254 11.8487H16.9937C17.1887 11.8487 17.369 11.9135 17.5204 12.0123L18.6072 10.8084C18.4163 10.695 18.195 10.6362 17.9554 10.6362H9.21195C8.53836 10.6362 8 11.1761 8 11.8507V22.4605C8 23.164 8.56065 23.7317 9.26361 23.7317H17.9539C18.6579 23.7317 19.2241 23.164 19.2241 22.4605V16.855L18.1757 18.0295C18.1307 18.0806 18.0866 18.1242 18.0339 18.1607Z" fill="white"/>
<path d="M10.8583 13.5107C10.5134 13.5107 10.2344 13.7721 10.2344 14.1175C10.2344 14.4614 10.5139 14.7232 10.8583 14.7232H15.0873L16.1944 13.5107H10.8583Z" fill="white"/>
<path d="M14.3899 15.6246C14.3959 15.6033 14.403 15.5896 14.4111 15.5547H10.8583C10.5134 15.5547 10.2344 15.8332 10.2344 16.1781C10.2344 16.5205 10.5139 16.8006 10.8583 16.8006H14.0531L14.3899 15.6246Z" fill="white"/>
<path d="M13.0162 17.6338H11.1484H10.8612C10.5163 17.6338 10.2383 17.9128 10.2383 18.2562C10.2383 18.5996 10.5168 18.8792 10.8612 18.8792H11.9623H12.3072H13.0167C13.2927 18.8792 13.5257 18.6968 13.6082 18.4497C13.6128 18.3833 13.6234 18.3124 13.6407 18.2491C13.6391 17.9367 13.4087 17.6814 13.1074 17.6389C13.0775 17.6353 13.0471 17.6338 13.0162 17.6338Z" fill="white"/>
<path d="M19.6886 10.6887L15.685 15.1511L15.4141 15.4534L17.5807 17.3962L17.8516 17.0943L21.8537 12.6325L22.1773 12.2734L20.0102 10.3296L19.6886 10.6887ZM19.4683 12.7069L16.8863 15.5841C16.8539 15.62 16.8094 15.6418 16.7602 15.6449C16.7111 15.6474 16.665 15.6307 16.628 15.5983L16.4994 15.4833C16.4255 15.4159 16.4194 15.301 16.4867 15.2255L19.0687 12.3478C19.1001 12.3119 19.1456 12.2901 19.1953 12.2876C19.2429 12.285 19.2905 12.3017 19.327 12.3336L19.4536 12.4491C19.5295 12.5165 19.5341 12.6319 19.4683 12.7069ZM20.2173 11.34L20.3449 11.4544C20.4189 11.5213 20.426 11.6357 20.3591 11.7107L20.3581 11.7117L20.1353 11.9619C20.1256 11.972 20.116 11.9806 20.1049 11.9882C20.076 12.0085 20.0436 12.0207 20.0091 12.0227C19.9605 12.0252 19.9139 12.0085 19.8775 11.9761L19.7488 11.8616C19.7134 11.8297 19.6916 11.7841 19.6891 11.7355C19.6855 11.6874 19.7022 11.6398 19.7357 11.6038L19.9595 11.3536C20.0269 11.2797 20.1439 11.2726 20.2173 11.34Z" fill="white"/>
<path d="M20.4163 9.87771L20.2188 10.0965L22.3844 12.0408L22.5824 11.8205L22.9182 11.4467L20.7515 9.50293L20.4163 9.87771Z" fill="white"/>
<path d="M23.791 9.53108L22.5623 8.42953C22.4382 8.31811 22.2756 8.26038 22.1085 8.26949C21.9414 8.27861 21.7839 8.35356 21.674 8.47765L20.9492 9.28494L23.1148 11.2282L23.8396 10.4209C24.0715 10.1626 24.0508 9.76354 23.791 9.53108ZM23.0713 10.4184L21.7585 9.24088L22.1379 8.81849L23.4501 9.996L23.0713 10.4184Z" fill="white"/>
<path d="M14.8309 18.7059L17.3211 17.6854L15.1565 15.7432L14.4105 18.3296C14.3776 18.4456 14.4131 18.5707 14.5027 18.6502C14.5923 18.7302 14.7195 18.7525 14.8309 18.7059ZM15.3536 16.4335L16.6121 17.5624L15.6336 17.9635L15.0608 17.4499L15.3536 16.4335Z" fill="white"/>
</g>
<defs>
<clipPath id="clip0_1036_4776">
<rect width="16" height="16" fill="white" transform="translate(8 8)"/>
</clipPath>
</defs>
</svg>
