<svg width="48" height="48" viewBox="0 0 48 48" fill="none" xmlns="http://www.w3.org/2000/svg">
<rect width="48" height="48" rx="8" fill="#E91895"/>
<path d="M17.8399 20.6332L13.7996 23.9998L17.8399 27.3664C17.9739 27.4762 18.0849 27.6114 18.1663 27.7643C18.2478 27.9172 18.2982 28.0847 18.3146 28.2572C18.331 28.4296 18.3131 28.6036 18.2619 28.7692C18.2108 28.9347 18.1273 29.0884 18.0165 29.2215C17.9056 29.3546 17.7695 29.4645 17.6159 29.5447C17.4624 29.625 17.2945 29.674 17.1219 29.6891C16.9493 29.7041 16.7754 29.6848 16.6103 29.6323C16.4452 29.5798 16.2922 29.4952 16.1599 29.3832L10.9099 25.0082C10.7621 24.8851 10.6431 24.7309 10.5615 24.5566C10.4798 24.3823 10.4375 24.1922 10.4375 23.9998C10.4375 23.8073 10.4798 23.6173 10.5615 23.443C10.6431 23.2687 10.7621 23.1145 10.9099 22.9914L16.1599 18.6164C16.4278 18.3969 16.7715 18.2921 17.1162 18.3249C17.4609 18.3577 17.7787 18.5254 18.0003 18.7915C18.222 19.0575 18.3295 19.4004 18.2994 19.7454C18.2694 20.0904 18.1042 20.4095 17.8399 20.6332ZM37.0899 22.9914L31.8399 18.6164C31.7077 18.5044 31.5546 18.4198 31.3895 18.3673C31.2244 18.3148 31.0506 18.2955 30.878 18.3105C30.7054 18.3256 30.5375 18.3746 30.384 18.4549C30.2304 18.5351 30.0943 18.6449 29.9834 18.7781C29.8725 18.9112 29.7891 19.0649 29.7379 19.2304C29.6868 19.3959 29.6689 19.5699 29.6853 19.7424C29.7017 19.9149 29.7521 20.0824 29.8335 20.2353C29.915 20.3882 30.0259 20.5234 30.1599 20.6332L34.2002 23.9998L30.1599 27.3664C30.0259 27.4762 29.915 27.6114 29.8335 27.7643C29.7521 27.9172 29.7017 28.0847 29.6853 28.2572C29.6689 28.4296 29.6868 28.6036 29.7379 28.7692C29.7891 28.9347 29.8725 29.0884 29.9834 29.2215C30.0943 29.3546 30.2304 29.4645 30.384 29.5447C30.5375 29.625 30.7054 29.674 30.878 29.6891C31.0506 29.7041 31.2244 29.6848 31.3895 29.6323C31.5546 29.5798 31.7077 29.4952 31.8399 29.3832L37.0899 25.0082C37.2378 24.8851 37.3568 24.7309 37.4384 24.5566C37.5201 24.3823 37.5624 24.1922 37.5624 23.9998C37.5624 23.8073 37.5201 23.6173 37.4384 23.443C37.3568 23.2687 37.2378 23.1145 37.0899 22.9914ZM27.9484 13.141C27.7864 13.0821 27.6143 13.0557 27.4421 13.0633C27.2699 13.0709 27.1008 13.1123 26.9446 13.1852C26.7884 13.2582 26.6481 13.3611 26.5317 13.4883C26.4153 13.6155 26.3251 13.7643 26.2662 13.9264L19.2662 33.1764C19.1475 33.5034 19.1636 33.8642 19.3109 34.1795C19.4581 34.4947 19.7245 34.7386 20.0515 34.8575C20.1951 34.9105 20.3469 34.9375 20.4999 34.9373C20.7694 34.9373 21.0324 34.8544 21.2531 34.6999C21.4738 34.5453 21.6416 34.3265 21.7337 34.0732L28.7337 14.8232C28.7926 14.6612 28.819 14.4892 28.8114 14.3169C28.8039 14.1447 28.7624 13.9757 28.6895 13.8195C28.6166 13.6632 28.5136 13.5229 28.3864 13.4065C28.2593 13.2901 28.1104 13.1999 27.9484 13.141Z" fill="white"/>
</svg>
