<svg width="48" height="48" viewBox="0 0 48 48" fill="none" xmlns="http://www.w3.org/2000/svg">
<rect width="48" height="48" rx="8" fill="#06D6A0"/>
<path d="M11.9297 11.9883V36.1289H36.0703V11.9883H11.9297ZM35.127 35.1855H12.873V12.9316H35.127V35.1855Z" fill="white"/>
<path d="M11.4727 11.1094H13.2656C13.5293 11.1094 13.7461 11.3262 13.7461 11.5898V13.3828C13.7461 13.6465 13.5293 13.8633 13.2656 13.8633H11.4727C11.209 13.8633 10.9922 13.6465 10.9922 13.3828V11.5898C10.9922 11.3262 11.209 11.1094 11.4727 11.1094Z" fill="white"/>
<path d="M11.7773 11.7539H12.9551C13.0312 11.7539 13.0957 11.8184 13.0957 11.8945V13.0723C13.0957 13.1484 13.0312 13.2129 12.9551 13.2129H11.7773C11.7012 13.2129 11.6367 13.1484 11.6367 13.0723V11.8945C11.6367 11.8184 11.7012 11.7539 11.7773 11.7539Z" fill="white"/>
<path d="M34.7344 11.1094H36.5273C36.791 11.1094 37.0078 11.3262 37.0078 11.5898V13.3828C37.0078 13.6465 36.791 13.8633 36.5273 13.8633H34.7344C34.4707 13.8633 34.2539 13.6465 34.2539 13.3828V11.5898C34.2539 11.3262 34.4707 11.1094 34.7344 11.1094Z" fill="white"/>
<path d="M35.0391 11.7539H36.2168C36.293 11.7539 36.3574 11.8184 36.3574 11.8945V13.0723C36.3574 13.1484 36.293 13.2129 36.2168 13.2129H35.0391C34.9629 13.2129 34.8984 13.1484 34.8984 13.0723V11.8945C34.8984 11.8184 34.9629 11.7539 35.0391 11.7539Z" fill="white"/>
<path d="M11.4727 22.5938H13.2656C13.5293 22.5938 13.7461 22.8105 13.7461 23.0742V24.8672C13.7461 25.1309 13.5293 25.3477 13.2656 25.3477H11.4727C11.209 25.3477 10.9922 25.1309 10.9922 24.8672V23.0742C10.9922 22.8105 11.209 22.5938 11.4727 22.5938Z" fill="white"/>
<path d="M11.7773 23.2383H12.9551C13.0312 23.2383 13.0957 23.3027 13.0957 23.3789V24.5566C13.0957 24.6328 13.0312 24.6973 12.9551 24.6973H11.7773C11.7012 24.6973 11.6367 24.6328 11.6367 24.5566V23.3789C11.6367 23.3027 11.7012 23.2383 11.7773 23.2383Z" fill="white"/>
<path d="M34.7344 22.5938H36.5273C36.791 22.5938 37.0078 22.8105 37.0078 23.0742V24.8672C37.0078 25.1309 36.791 25.3477 36.5273 25.3477H34.7344C34.4707 25.3477 34.2539 25.1309 34.2539 24.8672V23.0742C34.2539 22.8105 34.4707 22.5938 34.7344 22.5938Z" fill="white"/>
<path d="M35.0391 23.2383H36.2168C36.293 23.2383 36.3574 23.3027 36.3574 23.3789V24.5566C36.3574 24.6328 36.293 24.6973 36.2168 24.6973H35.0391C34.9629 24.6973 34.8984 24.6328 34.8984 24.5566V23.3789C34.8984 23.3027 34.9629 23.2383 35.0391 23.2383Z" fill="white"/>
<path d="M11.4727 34.1367H13.2656C13.5293 34.1367 13.7461 34.3535 13.7461 34.6172V36.4102C13.7461 36.6738 13.5293 36.8906 13.2656 36.8906H11.4727C11.209 36.8906 10.9922 36.6738 10.9922 36.4102V34.6172C10.9922 34.3535 11.209 34.1367 11.4727 34.1367Z" fill="white"/>
<path d="M11.7773 34.7812H12.9551C13.0312 34.7812 13.0957 34.8457 13.0957 34.9219V36.0996C13.0957 36.1758 13.0312 36.2402 12.9551 36.2402H11.7773C11.7012 36.2402 11.6367 36.1758 11.6367 36.0996V34.9219C11.6367 34.8457 11.7012 34.7812 11.7773 34.7812Z" fill="white"/>
<path d="M23.1328 11.1094H24.9258C25.1895 11.1094 25.4062 11.3262 25.4062 11.5898V13.3828C25.4062 13.6465 25.1895 13.8633 24.9258 13.8633H23.1328C22.8691 13.8633 22.6523 13.6465 22.6523 13.3828V11.5898C22.6523 11.3262 22.8691 11.1094 23.1328 11.1094Z" fill="white"/>
<path d="M23.4375 11.7539H24.6152C24.6914 11.7539 24.7559 11.8184 24.7559 11.8945V13.0723C24.7559 13.1484 24.6914 13.2129 24.6152 13.2129H23.4375C23.3613 13.2129 23.2969 13.1484 23.2969 13.0723V11.8945C23.2969 11.8184 23.3613 11.7539 23.4375 11.7539Z" fill="white"/>
<path d="M23.1328 34.1367H24.9258C25.1895 34.1367 25.4062 34.3535 25.4062 34.6172V36.4102C25.4062 36.6738 25.1895 36.8906 24.9258 36.8906H23.1328C22.8691 36.8906 22.6523 36.6738 22.6523 36.4102V34.6172C22.6523 34.3535 22.8691 34.1367 23.1328 34.1367Z" fill="white"/>
<path d="M23.4375 34.7812H24.6152C24.6914 34.7812 24.7559 34.8457 24.7559 34.9219V36.0996C24.7559 36.1758 24.6914 36.2402 24.6152 36.2402H23.4375C23.3613 36.2402 23.2969 36.1758 23.2969 36.0996V34.9219C23.2969 34.8457 23.3613 34.7812 23.4375 34.7812Z" fill="white"/>
<path d="M34.7344 34.1367H36.5273C36.791 34.1367 37.0078 34.3535 37.0078 34.6172V36.4102C37.0078 36.6738 36.791 36.8906 36.5273 36.8906H34.7344C34.4707 36.8906 34.2539 36.6738 34.2539 36.4102V34.6172C34.2539 34.3535 34.4707 34.1367 34.7344 34.1367Z" fill="white"/>
<path d="M35.0391 34.7812H36.2168C36.293 34.7812 36.3574 34.8457 36.3574 34.9219V36.0996C36.3574 36.1758 36.293 36.2402 36.2168 36.2402H35.0391C34.9629 36.2402 34.8984 36.1758 34.8984 36.0996V34.9219C34.8984 34.8457 34.9629 34.7812 35.0391 34.7812Z" fill="white"/>
<path d="M22.6289 20.4492H25.3711L26.9473 27.2754L29.1797 17.7129H31.9512L28.834 30.4102H25.0781L23.9941 24.8789L22.9277 30.4102H19.1719L16.0547 17.7129H18.8262L21.0586 27.2754L22.6289 20.4492Z" fill="white"/>
</svg>
