<svg width="48" height="48" viewBox="0 0 48 48" fill="none" xmlns="http://www.w3.org/2000/svg">
<rect width="48" height="48" rx="8" fill="#03C3EC"/>
<g clip-path="url(#clip0_1050_5428)">
<path d="M34.4237 16.8027L27.8614 10.2404C27.7082 10.0871 27.4991 10 27.2812 10H15.7969C14.4399 10 13.3359 11.104 13.3359 12.4609V35.5391C13.3359 36.896 14.4399 38 15.7969 38H32.2031C33.5601 38 34.6641 36.896 34.6641 35.5391V17.3828C34.6641 17.1591 34.5702 16.9491 34.4237 16.8027ZM28.1016 12.8007L31.8633 16.5625H28.9219C28.4696 16.5625 28.1016 16.1945 28.1016 15.7422V12.8007ZM32.2031 36.3594H15.7969C15.3446 36.3594 14.9766 35.9914 14.9766 35.5391V12.4609C14.9766 12.0086 15.3446 11.6406 15.7969 11.6406H26.4609V15.7422C26.4609 17.0991 27.5649 18.2031 28.9219 18.2031H33.0234V35.5391C33.0234 35.9914 32.6554 36.3594 32.2031 36.3594Z" fill="white"/>
<path d="M28.9219 21.5938H19.0781C18.6251 21.5938 18.2578 21.961 18.2578 22.4141C18.2578 22.8671 18.6251 23.2344 19.0781 23.2344H28.9219C29.3749 23.2344 29.7422 22.8671 29.7422 22.4141C29.7422 21.961 29.3749 21.5938 28.9219 21.5938Z" fill="white"/>
<path d="M28.9219 24.875H19.0781C18.6251 24.875 18.2578 25.2423 18.2578 25.6953C18.2578 26.1483 18.6251 26.5156 19.0781 26.5156H28.9219C29.3749 26.5156 29.7422 26.1483 29.7422 25.6953C29.7422 25.2423 29.3749 24.875 28.9219 24.875Z" fill="white"/>
<path d="M28.9219 28.1562H19.0781C18.6251 28.1562 18.2578 28.5235 18.2578 28.9766C18.2578 29.4296 18.6251 29.7969 19.0781 29.7969H28.9219C29.3749 29.7969 29.7422 29.4296 29.7422 28.9766C29.7422 28.5235 29.3749 28.1562 28.9219 28.1562Z" fill="white"/>
<path d="M25.6406 31.4375H19.0781C18.6251 31.4375 18.2578 31.8048 18.2578 32.2578C18.2578 32.7108 18.6251 33.0781 19.0781 33.0781H25.6406C26.0937 33.0781 26.4609 32.7108 26.4609 32.2578C26.4609 31.8048 26.0937 31.4375 25.6406 31.4375Z" fill="white"/>
</g>
<defs>
<clipPath id="clip0_1050_5428">
<rect width="28" height="28" fill="white" transform="translate(10 10)"/>
</clipPath>
</defs>
</svg>
