<svg width="33" height="33" viewBox="0 0 33 33" fill="none" xmlns="http://www.w3.org/2000/svg">
<rect x="0.894531" y="0.892578" width="31.2144" height="31.2144" rx="15.6072" fill="#0080EF"/>
<path d="M22.5 9.85714C22.5 9.28793 22.1583 8.89514 21.7163 8.64721C21.291 8.40857 20.7227 8.26836 20.1024 8.17921C18.86 8 17.2099 8 15.5654 8H15.5357C15.4126 8 15.2945 8.04892 15.2074 8.13599C15.1203 8.22306 15.0714 8.34115 15.0714 8.46429C15.0714 8.58742 15.1203 8.70551 15.2074 8.79259C15.2945 8.87966 15.4126 8.92857 15.5357 8.92857C17.2155 8.92857 18.8015 8.9295 19.9696 9.09757C20.5574 9.183 20.9883 9.30371 21.2613 9.45693C21.5176 9.60086 21.5714 9.72993 21.5714 9.85714C21.5714 9.99643 21.5129 10.1246 21.2799 10.2629C21.0273 10.4134 20.6261 10.5322 20.0792 10.6167C18.99 10.7839 17.5219 10.7857 16 10.7857H15.9703C14.4836 10.7857 12.9469 10.7857 11.7796 10.9649C11.1956 11.055 10.6533 11.1971 10.2456 11.4385C9.8185 11.692 9.5 12.0848 9.5 12.6429C9.5 13.3783 10.0999 13.8194 10.7276 14.0589C11.3813 14.3078 12.2569 14.4239 13.2143 14.4239V13.4953C12.3136 13.4953 11.5651 13.3839 11.0581 13.1907C10.5251 12.9883 10.4286 12.771 10.4286 12.6429C10.4286 12.5036 10.4871 12.3754 10.7201 12.2371C10.9727 12.0866 11.3739 11.9678 11.9208 11.8833C13.01 11.7161 14.4781 11.7143 16 11.7143H16.0297C17.5164 11.7143 19.0531 11.7143 20.2204 11.5351C20.8044 11.445 21.3467 11.3029 21.7544 11.0615C22.1815 10.808 22.5 10.4152 22.5 9.85714ZM15.5357 12.6419C15.1663 12.6419 14.812 12.7887 14.5508 13.0499C14.2896 13.3111 14.1429 13.6654 14.1429 14.0348V17.9738L12.8939 17.4352C12.6622 17.3355 12.4121 17.2856 12.1599 17.2888C11.9077 17.2921 11.6589 17.3483 11.4298 17.4539C11.2008 17.5595 10.9965 17.7121 10.8302 17.9018C10.6639 18.0916 10.5394 18.3141 10.4648 18.5551C10.4117 18.7264 10.4178 18.9106 10.4821 19.0781C10.5465 19.2455 10.6653 19.3864 10.8195 19.4781L14.5031 21.6649C14.9221 21.8821 15.2572 22.2322 15.4559 22.6603C15.6137 22.9881 15.8644 23.2926 16.1746 23.5025C16.4884 23.7142 16.8886 23.8442 17.3186 23.7616L19.1757 23.4041C19.4365 23.3539 19.6775 23.2302 19.8703 23.0476C20.0631 22.865 20.1997 22.631 20.264 22.3734L21.0366 19.284C21.1127 18.9796 21.1263 18.6629 21.0766 18.3531C21.0269 18.0433 20.915 17.7468 20.7475 17.4815C20.58 17.2162 20.3604 16.9876 20.1021 16.8095C19.8437 16.6314 19.552 16.5075 19.2444 16.4454L16.9286 15.9774V14.0348C16.9286 13.6654 16.7818 13.3111 16.5206 13.0499C16.2594 12.7887 15.9051 12.6419 15.5357 12.6419Z" fill="white"/>
</svg>
