<svg width="48" height="48" viewBox="0 0 48 48" fill="none" xmlns="http://www.w3.org/2000/svg">
<rect width="48" height="48" rx="8" fill="#FFD166"/>
<path d="M13.5 31V17.2333C13.5 15.9267 13.5 15.2733 13.7543 14.774C13.9783 14.3342 14.3342 13.9783 14.774 13.7543C15.2733 13.5 15.9267 13.5 17.2333 13.5H30.7667C32.0733 13.5 32.7267 13.5 33.226 13.7543C33.665 13.978 34.022 14.335 34.2457 14.774C34.5 15.2722 34.5 15.9255 34.5 17.2298V30.7702C34.5 31.336 34.5 31.7793 34.479 32.1398M13.5 31C13.5 32.1527 13.5152 32.757 13.7543 33.2248C13.9783 33.6647 14.3342 34.0217 14.774 34.2457C15.2722 34.5 15.9255 34.5 17.2298 34.5H30.7713C32.0757 34.5 32.7278 34.5 33.226 34.2457C33.6647 34.0217 34.0217 33.6647 34.2457 33.2248C34.3892 32.9425 34.4522 32.6112 34.479 32.1398M13.5 31L19.0627 24.5098L19.0638 24.5087C19.5573 23.9335 19.8047 23.6453 20.0975 23.5403C20.3549 23.4493 20.636 23.4513 20.892 23.5462C21.1837 23.6547 21.4287 23.9463 21.914 24.5297L25.0302 28.2688C25.4805 28.8102 25.7068 29.0808 25.9822 29.1905C26.2246 29.2859 26.492 29.2974 26.7417 29.2232C27.0263 29.1392 27.2783 28.8883 27.7788 28.3878L28.3587 27.808C28.8685 27.297 29.124 27.0427 29.4133 26.9587C29.6671 26.8852 29.9383 26.9004 30.1822 27.0018C30.4598 27.1173 30.685 27.3985 31.1365 27.9608L34.479 32.1398M34.479 32.1398L34.5 32.1667M27.5 20.5C27.1906 20.5 26.8938 20.3771 26.675 20.1583C26.4562 19.9395 26.3333 19.6428 26.3333 19.3333C26.3333 19.0239 26.4562 18.7272 26.675 18.5084C26.8938 18.2896 27.1906 18.1667 27.5 18.1667C27.8094 18.1667 28.1062 18.2896 28.325 18.5084C28.5437 18.7272 28.6667 19.0239 28.6667 19.3333C28.6667 19.6428 28.5437 19.9395 28.325 20.1583C28.1062 20.3771 27.8094 20.5 27.5 20.5Z" stroke="white" stroke-width="2" stroke-linecap="round" stroke-linejoin="round"/>
</svg>
