<svg width="32" height="33" viewBox="0 0 32 33" fill="none" xmlns="http://www.w3.org/2000/svg">
<g clip-path="url(#clip0_1036_4809)">
<rect x="0.394531" y="0.892578" width="31.2144" height="31.2144" rx="15.6072" fill="#0080EF"/>
<path d="M19.6827 13.5865L22.5 10.7692L21.4712 9.74038L18.6538 12.5577L19.6827 13.5865ZM23.9808 10.7692C23.9808 10.9423 23.9231 11.0865 23.8077 11.2019L11.4423 23.5673C11.3269 23.6827 11.1827 23.7404 11.0096 23.7404C10.8365 23.7404 10.6923 23.6827 10.5769 23.5673L8.67308 21.6635C8.55769 21.5481 8.5 21.4038 8.5 21.2308C8.5 21.0577 8.55769 20.9135 8.67308 20.7981L14.8558 14.6154L21.0385 8.43269C21.1538 8.31731 21.2981 8.25962 21.4712 8.25962C21.6442 8.25962 21.7885 8.31731 21.9038 8.43269L23.8077 10.3365C23.9231 10.4519 23.9808 10.5962 23.9808 10.7692ZM10.9904 8.94231L11.9327 9.23077L10.9904 9.51923L10.7019 10.4615L10.4135 9.51923L9.47115 9.23077L10.4135 8.94231L10.7019 8L10.9904 8.94231ZM14.3558 10.5L16.2404 11.0769L14.3558 11.6538L13.7788 13.5385L13.2019 11.6538L11.3173 11.0769L13.2019 10.5L13.7788 8.61538L14.3558 10.5ZM23.2981 15.0962L24.2404 15.3846L23.2981 15.6731L23.0096 16.6154L22.7212 15.6731L21.7788 15.3846L22.7212 15.0962L23.0096 14.1538L23.2981 15.0962ZM17.1442 8.94231L18.0865 9.23077L17.1442 9.51923L16.8558 10.4615L16.5673 9.51923L15.625 9.23077L16.5673 8.94231L16.8558 8L17.1442 8.94231Z" fill="white"/>
</g>
<defs>
<clipPath id="clip0_1036_4809">
<rect x="0.394531" y="0.892578" width="31.2144" height="31.2144" rx="15.6072" fill="white"/>
</clipPath>
</defs>
</svg>
