<svg width="48" height="48" viewBox="0 0 48 48" fill="none" xmlns="http://www.w3.org/2000/svg">
<rect width="48" height="48" rx="8" fill="#B6900C"/>
<g clip-path="url(#clip0_1036_4729)">
<path d="M38 19.1247V15.8515C38 15.5758 37.8615 15.3185 37.6313 15.1668C37.401 15.0149 37.11 14.989 36.8565 15.0976L25.3722 20.0194C25.0706 20.1487 24.875 20.4453 24.875 20.7734V32.0879C24.1699 31.6667 23.3119 31.4375 22.4141 31.4375C21.3613 31.4375 20.3625 31.7517 19.6017 32.3223C18.7824 32.9368 18.3125 33.8103 18.3125 34.7187C18.3125 35.6272 18.7824 36.5007 19.6017 37.1151C20.3625 37.6858 21.3613 38 22.4141 38C23.4669 38 24.4657 37.6858 25.2264 37.1151C26.0457 36.5007 26.5156 35.6272 26.5156 34.7187V24.5956L36.3594 20.3768V27.1661C35.6542 26.7449 34.7962 26.5156 33.8984 26.5156C32.8456 26.5156 31.8468 26.8298 31.0861 27.4005C30.2668 28.0149 29.7969 28.8884 29.7969 29.7969C29.7969 30.7053 30.2668 31.5788 31.0861 32.1933C31.8468 32.7639 32.8456 33.0781 33.8984 33.0781C34.9512 33.0781 35.95 32.7639 36.7108 32.1933C37.5301 31.5788 38 30.7053 38 29.7969C38 29.7969 38 19.1275 38 19.1247ZM22.4141 36.3594C21.0801 36.3594 19.9531 35.6081 19.9531 34.7187C19.9531 33.8294 21.0801 33.0781 22.4141 33.0781C23.7481 33.0781 24.875 33.8294 24.875 34.7187C24.875 35.6081 23.7481 36.3594 22.4141 36.3594ZM26.5156 22.8106V21.3143L36.3594 17.0956V18.5919L26.5156 22.8106ZM33.8984 31.4375C32.5644 31.4375 31.4375 30.6862 31.4375 29.7969C31.4375 28.9075 32.5644 28.1562 33.8984 28.1562C35.2324 28.1562 36.3594 28.9075 36.3594 29.7969C36.3594 30.6862 35.2324 31.4375 33.8984 31.4375Z" fill="white"/>
<path d="M21.4844 19.0233C21.4844 20.0816 20.4727 21.3328 20.084 21.7245C19.7637 22.0449 19.7637 22.5643 20.084 22.8846C20.4044 23.205 20.9238 23.205 21.2441 22.8846C21.4367 22.6921 23.1251 20.9481 23.1251 19.0234C23.1251 17.4811 22.2419 15.5216 20.5001 13.1991C19.2496 11.532 18.0162 10.2935 17.963 10.2403C17.4512 9.72813 16.5625 10.0875 16.5625 10.8202V22.1347C15.8574 21.7135 14.9994 21.4842 14.1016 21.4842C13.0488 21.4842 12.05 21.7985 11.2892 22.3691C10.4699 22.9836 10 23.857 10 24.7655C10 25.674 10.4699 26.5474 11.2892 27.1619C12.05 27.7325 13.0488 28.0467 14.1016 28.0467C15.1544 28.0467 16.1532 27.7325 16.9139 27.1619C17.7332 26.5474 18.2031 25.674 18.2031 24.7655V12.944C19.6825 14.7048 21.4844 17.2644 21.4844 19.0233ZM14.1016 26.4061C12.7676 26.4061 11.6406 25.6548 11.6406 24.7655C11.6406 23.8762 12.7676 23.1249 14.1016 23.1249C15.4356 23.1249 16.5625 23.8762 16.5625 24.7655C16.5625 25.6548 15.4356 26.4061 14.1016 26.4061Z" fill="white"/>
</g>
<defs>
<clipPath id="clip0_1036_4729">
<rect width="28" height="28" fill="white" transform="translate(10 10)"/>
</clipPath>
</defs>
</svg>
