<svg width="48" height="48" viewBox="0 0 48 48" fill="none" xmlns="http://www.w3.org/2000/svg">
<rect width="48" height="48" rx="8" fill="#B008FF"/>
<path d="M18.1667 33.3332H29.8333M20.5 28.6665V33.3332M27.5 28.6665V33.3332M20.5 23.9998V19.3332M24 23.9998V22.8332M27.5 23.9998V21.6665M13.5 15.8332C13.5 15.5238 13.6229 15.227 13.8417 15.0082C14.0605 14.7894 14.3572 14.6665 14.6667 14.6665H33.3333C33.6428 14.6665 33.9395 14.7894 34.1583 15.0082C34.3771 15.227 34.5 15.5238 34.5 15.8332V27.4998C34.5 27.8093 34.3771 28.106 34.1583 28.3248C33.9395 28.5436 33.6428 28.6665 33.3333 28.6665H14.6667C14.3572 28.6665 14.0605 28.5436 13.8417 28.3248C13.6229 28.106 13.5 27.8093 13.5 27.4998V15.8332Z" stroke="white" stroke-width="2" stroke-linecap="round" stroke-linejoin="round"/>
</svg>
