<svg width="32" height="33" viewBox="0 0 32 33" fill="none" xmlns="http://www.w3.org/2000/svg">
<rect x="0.394531" y="0.892578" width="31.2144" height="31.2144" rx="15.6072" fill="#0080EF"/>
<g clip-path="url(#clip0_1036_4889)">
<path d="M9.45886 17.636C8.98476 17.636 8.52509 17.4833 8.22586 17.3298L8 18.2489C8.2771 18.4021 8.83179 18.5479 9.39345 18.5479C10.7431 18.5479 11.3777 17.8477 11.3777 17.0233C11.3777 16.3303 10.969 15.8781 10.1011 15.557C9.46633 15.316 9.18923 15.1777 9.18923 14.864C9.18923 14.6086 9.42255 14.3897 9.90411 14.3897C10.3857 14.3897 10.7359 14.5285 10.9327 14.6232L11.1809 13.726C10.8889 13.5947 10.4804 13.478 9.926 13.478C8.76612 13.478 8.06567 14.1198 8.06567 14.9588C8.06567 15.6737 8.59822 16.1259 9.41533 16.4104C10.0061 16.6221 10.2397 16.7972 10.2397 17.1032C10.2397 17.4243 9.96953 17.636 9.45886 17.636Z" fill="white"/>
<path d="M15.2658 17.5631H13.2453V16.396H15.0541V15.4913H13.2453V14.47H15.1638V13.5581H12.1289V18.475H15.2658V17.5631Z" fill="white"/>
<path d="M19.0263 18.8483C19.7166 18.8483 20.3491 18.5998 20.8416 18.1884L21.8209 19.1022C21.8194 19.2042 21.8565 19.3052 21.9366 19.3801L23.3735 20.7218C23.4454 20.789 23.5365 20.822 23.6278 20.822C23.7275 20.822 23.8273 20.7822 23.9006 20.7031C24.0412 20.5529 24.033 20.3161 23.8827 20.1758L22.4457 18.8343C22.3656 18.7595 22.2617 18.7299 22.1607 18.7381L21.1943 17.8364C21.61 17.3431 21.8619 16.7069 21.8619 16.0126C21.8619 14.4493 20.5904 13.1777 19.0271 13.1777C17.4637 13.1777 16.1914 14.4498 16.1914 16.0129C16.1912 17.5765 17.463 18.8483 19.0263 18.8483Z" fill="white"/>
</g>
<defs>
<clipPath id="clip0_1036_4889">
<rect width="16.0002" height="16" fill="white" transform="translate(8 9)"/>
</clipPath>
</defs>
</svg>
