<svg width="48" height="48" viewBox="0 0 48 48" fill="none" xmlns="http://www.w3.org/2000/svg">
<rect width="48" height="48" rx="8" fill="#FE8414"/>
<path d="M19.625 22.25H12.625C12.3929 22.25 12.1704 22.3422 12.0063 22.5063C11.8422 22.6704 11.75 22.8929 11.75 23.125V33.625C11.75 34.3212 12.0266 34.9889 12.5188 35.4812C13.0111 35.9734 13.6788 36.25 14.375 36.25H19.625C19.8571 36.25 20.0796 36.1578 20.2437 35.9937C20.4078 35.8296 20.5 35.6071 20.5 35.375V23.125C20.5 22.8929 20.4078 22.6704 20.2437 22.5063C20.0796 22.3422 19.8571 22.25 19.625 22.25ZM18.75 34.5H14.375C14.1429 34.5 13.9204 34.4078 13.7563 34.2437C13.5922 34.0796 13.5 33.8571 13.5 33.625V24H18.75V34.5ZM36.25 14.375V19.625C36.25 19.8571 36.1578 20.0796 35.9937 20.2437C35.8296 20.4078 35.6071 20.5 35.375 20.5H12.625C12.3929 20.5 12.1704 20.4078 12.0063 20.2437C11.8422 20.0796 11.75 19.8571 11.75 19.625V14.375C11.75 13.6788 12.0266 13.0111 12.5188 12.5188C13.0111 12.0266 13.6788 11.75 14.375 11.75H25.75C25.9821 11.75 26.2046 11.8422 26.3687 12.0063C26.5328 12.1704 26.625 12.3929 26.625 12.625C26.625 12.8571 26.5328 13.0796 26.3687 13.2437C26.2046 13.4078 25.9821 13.5 25.75 13.5H14.375C14.1429 13.5 13.9204 13.5922 13.7563 13.7563C13.5922 13.9204 13.5 14.1429 13.5 14.375V18.75H34.5V14.375C34.5 14.1429 34.4078 13.9204 34.2437 13.7563C34.0796 13.5922 33.8571 13.5 33.625 13.5H29.25C29.0179 13.5 28.7954 13.4078 28.6313 13.2437C28.4672 13.0796 28.375 12.8571 28.375 12.625C28.375 12.3929 28.4672 12.1704 28.6313 12.0063C28.7954 11.8422 29.0179 11.75 29.25 11.75H33.625C34.3212 11.75 34.9889 12.0266 35.4812 12.5188C35.9734 13.0111 36.25 13.6788 36.25 14.375ZM36.25 23.125V26.625C36.25 26.8571 36.1578 27.0796 35.9937 27.2437C35.8296 27.4078 35.6071 27.5 35.375 27.5C35.1429 27.5 34.9204 27.4078 34.7563 27.2437C34.5922 27.0796 34.5 26.8571 34.5 26.625V24H24V34.5H33.625C33.8571 34.5 34.0796 34.4078 34.2437 34.2437C34.4078 34.0796 34.5 33.8571 34.5 33.625V30.125C34.5 29.8929 34.5922 29.6704 34.7563 29.5063C34.9204 29.3422 35.1429 29.25 35.375 29.25C35.6071 29.25 35.8296 29.3422 35.9937 29.5063C36.1578 29.6704 36.25 29.8929 36.25 30.125V33.625C36.25 34.3212 35.9734 34.9889 35.4812 35.4812C34.9889 35.9734 34.3212 36.25 33.625 36.25H23.125C22.8929 36.25 22.6704 36.1578 22.5063 35.9937C22.3422 35.8296 22.25 35.6071 22.25 35.375V23.125C22.25 22.8929 22.3422 22.6704 22.5063 22.5063C22.6704 22.3422 22.8929 22.25 23.125 22.25H35.375C35.6071 22.25 35.8296 22.3422 35.9937 22.5063C36.1578 22.6704 36.25 22.8929 36.25 23.125Z" fill="white"/>
</svg>
