<svg width="48" height="48" viewBox="0 0 48 48" fill="none" xmlns="http://www.w3.org/2000/svg">
<rect width="48" height="48" rx="8" fill="#FF6F61"/>
<path d="M30.2605 12.1874C30.0243 12.2381 29.8137 12.3706 29.6659 12.5616C29.5181 12.7526 29.4426 12.9897 29.4528 13.231V33.6925C29.4288 33.8389 29.4369 33.9888 29.4766 34.1317C29.5163 34.2746 29.5866 34.4072 29.6827 34.5203C29.7787 34.6334 29.8982 34.7242 30.0328 34.7865C30.1675 34.8487 30.314 34.881 30.4624 34.881C30.6107 34.881 30.7573 34.8487 30.8919 34.7865C31.0266 34.7242 31.1461 34.6334 31.2421 34.5203C31.3381 34.4072 31.4084 34.2746 31.4481 34.1317C31.4878 33.9888 31.496 33.8389 31.472 33.6925V13.231C31.4754 13.0871 31.4485 12.9442 31.3929 12.8115C31.3373 12.6788 31.2544 12.5593 31.1495 12.4608C31.0446 12.3624 30.9202 12.2871 30.7842 12.24C30.6483 12.1929 30.5039 12.175 30.3606 12.1874C30.3272 12.1858 30.2938 12.1858 30.2605 12.1874ZM17.3374 13.2644C17.1012 13.315 16.8906 13.4475 16.7428 13.6385C16.595 13.8295 16.5195 14.0666 16.5297 14.3079V32.6156C16.5057 32.762 16.5138 32.9118 16.5535 33.0548C16.5932 33.1977 16.6635 33.3303 16.7596 33.4434C16.8556 33.5564 16.9751 33.6473 17.1097 33.7095C17.2444 33.7718 17.391 33.8041 17.5393 33.8041C17.6877 33.8041 17.8342 33.7718 17.9689 33.7095C18.1035 33.6473 18.223 33.5564 18.319 33.4434C18.4151 33.3303 18.4854 33.1977 18.5251 33.0548C18.5648 32.9118 18.5729 32.762 18.5489 32.6156V14.3079C18.5523 14.1641 18.5254 14.0211 18.4698 13.8884C18.4142 13.7557 18.3313 13.6362 18.2264 13.5378C18.1216 13.4393 17.9971 13.364 17.8611 13.3169C17.7252 13.2698 17.5809 13.2519 17.4375 13.2644C17.4042 13.2627 17.3707 13.2627 17.3374 13.2644ZM27.0297 16.4951C26.7935 16.5458 26.5829 16.6783 26.4351 16.8693C26.2873 17.0603 26.2118 17.2974 26.222 17.5387V29.3848C26.1975 29.5314 26.2052 29.6816 26.2446 29.8249C26.2841 29.9682 26.3542 30.1012 26.4503 30.2146C26.5463 30.328 26.6659 30.4192 26.8008 30.4817C26.9356 30.5442 27.0824 30.5766 27.2311 30.5766C27.3797 30.5766 27.5265 30.5442 27.6614 30.4817C27.7962 30.4192 27.9158 30.328 28.0119 30.2146C28.1079 30.1012 28.1781 29.9682 28.2175 29.8249C28.2569 29.6816 28.2647 29.5314 28.2401 29.3848V17.5387C28.2435 17.395 28.2166 17.2523 28.1612 17.1198C28.1058 16.9872 28.023 16.8678 27.9184 16.7694C27.8137 16.671 27.6895 16.5956 27.5539 16.5484C27.4182 16.5011 27.2741 16.483 27.1309 16.4951C27.0968 16.4934 27.0638 16.4934 27.0297 16.4951ZM14.1066 17.5721C13.8705 17.6227 13.6599 17.7552 13.512 17.9462C13.3642 18.1372 13.2887 18.3743 13.2989 18.6156V28.3079C13.2744 28.4545 13.2821 28.6047 13.3216 28.748C13.361 28.8913 13.4312 29.0243 13.5272 29.1377C13.6233 29.2511 13.7429 29.3422 13.8777 29.4048C14.0125 29.4673 14.1594 29.4996 14.308 29.4996C14.4566 29.4996 14.6035 29.4673 14.7383 29.4048C14.8731 29.3422 14.9927 29.2511 15.0888 29.1377C15.1848 29.0243 15.255 28.8913 15.2944 28.748C15.3338 28.6047 15.3416 28.4545 15.3171 28.3079V18.6156C15.3205 18.472 15.2936 18.3292 15.2381 18.1967C15.1827 18.0641 15.0999 17.9448 14.9953 17.8463C14.8907 17.7479 14.7665 17.6726 14.6308 17.6253C14.4951 17.5781 14.351 17.5599 14.2078 17.5721C14.1738 17.5703 14.1407 17.5703 14.1066 17.5721ZM20.5681 18.649C20.332 18.6996 20.1214 18.8321 19.9736 19.0231C19.8258 19.2141 19.7503 19.4512 19.7605 19.6925V27.231C19.736 27.3776 19.7437 27.5277 19.7831 27.671C19.8225 27.8143 19.8927 27.9473 19.9887 28.0608C20.0848 28.1742 20.2044 28.2653 20.3392 28.3278C20.4741 28.3903 20.6209 28.4227 20.7695 28.4227C20.9182 28.4227 21.065 28.3903 21.1998 28.3278C21.3347 28.2653 21.4543 28.1742 21.5503 28.0608C21.6464 27.9473 21.7165 27.8143 21.756 27.671C21.7954 27.5277 21.8031 27.3776 21.7786 27.231V19.6925C21.782 19.5489 21.7551 19.4062 21.6997 19.2736C21.6442 19.1411 21.5615 19.0217 21.4568 18.9232C21.3522 18.8248 21.228 18.7495 21.0923 18.7022C20.9566 18.655 20.8125 18.6368 20.6694 18.649C20.6353 18.6473 20.6022 18.6473 20.5681 18.649ZM33.4912 18.649C33.2551 18.6996 33.0445 18.8321 32.8966 19.0231C32.7488 19.2141 32.6733 19.4512 32.6835 19.6925V27.231C32.6595 27.3774 32.6677 27.5272 32.7074 27.6702C32.7471 27.8131 32.8174 27.9457 32.9134 28.0588C33.0095 28.1718 33.129 28.2626 33.2636 28.3249C33.3982 28.3872 33.5448 28.4195 33.6931 28.4195C33.8415 28.4195 33.9881 28.3872 34.1227 28.3249C34.2573 28.2626 34.3768 28.1718 34.4729 28.0588C34.5689 27.9457 34.6392 27.8131 34.6789 27.6702C34.7186 27.5272 34.7267 27.3774 34.7028 27.231V19.6925C34.7062 19.5487 34.6792 19.4058 34.6237 19.2731C34.5681 19.1403 34.4852 19.0209 34.3803 18.9224C34.2754 18.8239 34.1509 18.7486 34.015 18.7015C33.8791 18.6544 33.7347 18.6365 33.5914 18.649C33.558 18.6473 33.5246 18.6473 33.4912 18.649ZM10.8758 20.8028C10.6397 20.8534 10.4291 20.986 10.2813 21.177C10.1334 21.3679 10.058 21.6051 10.0681 21.8464V25.0771C10.0442 25.2235 10.0523 25.3734 10.092 25.5163C10.1317 25.6593 10.202 25.7919 10.298 25.9049C10.3941 26.018 10.5136 26.1088 10.6482 26.1711C10.7828 26.2334 10.9294 26.2656 11.0778 26.2656C11.2261 26.2656 11.3727 26.2334 11.5073 26.1711C11.642 26.1088 11.7614 26.018 11.8575 25.9049C11.9535 25.7919 12.0238 25.6593 12.0635 25.5163C12.1032 25.3734 12.1114 25.2235 12.0874 25.0771V21.8464C12.0908 21.7025 12.0638 21.5596 12.0083 21.4269C11.9527 21.2942 11.8698 21.1747 11.7649 21.0762C11.66 20.9777 11.5355 20.9025 11.3996 20.8554C11.2637 20.8083 11.1193 20.7904 10.976 20.8028C10.9423 20.8012 10.9085 20.8012 10.8748 20.8028H10.8758ZM23.7989 20.8028C23.5628 20.8534 23.3522 20.986 23.2043 21.177C23.0565 21.3679 22.981 21.6051 22.9912 21.8464V25.0771C22.9667 25.2237 22.9745 25.3739 23.0139 25.5172C23.0533 25.6605 23.1235 25.7935 23.2195 25.9069C23.3156 26.0203 23.4352 26.1115 23.57 26.174C23.7048 26.2365 23.8517 26.2689 24.0003 26.2689C24.1489 26.2689 24.2958 26.2365 24.4306 26.174C24.5654 26.1115 24.685 26.0203 24.7811 25.9069C24.8771 25.7935 24.9473 25.6605 24.9867 25.5172C25.0262 25.3739 25.0339 25.2237 25.0094 25.0771V21.8464C25.0128 21.7027 24.9859 21.56 24.9304 21.4275C24.875 21.2949 24.7923 21.1755 24.6876 21.0771C24.583 20.9786 24.4588 20.9033 24.3231 20.8561C24.1874 20.8088 24.0433 20.7907 23.9001 20.8028C23.8661 20.8011 23.833 20.8011 23.7989 20.8028ZM36.722 20.8028C36.4859 20.8534 36.2752 20.986 36.1274 21.177C35.9796 21.3679 35.9041 21.6051 35.9143 21.8464V25.0771C35.8903 25.2235 35.8985 25.3734 35.9382 25.5163C35.9778 25.6593 36.0482 25.7919 36.1442 25.9049C36.2402 26.018 36.3597 26.1088 36.4944 26.1711C36.629 26.2334 36.7756 26.2656 36.9239 26.2656C37.0723 26.2656 37.2188 26.2334 37.3535 26.1711C37.4881 26.1088 37.6076 26.018 37.7036 25.9049C37.7997 25.7919 37.87 25.6593 37.9097 25.5163C37.9494 25.3734 37.9575 25.2235 37.9335 25.0771V21.8464C37.937 21.7025 37.91 21.5596 37.8544 21.4269C37.7989 21.2942 37.7159 21.1747 37.611 21.0762C37.5062 20.9777 37.3817 20.9025 37.2458 20.8554C37.1098 20.8083 36.9655 20.7904 36.8221 20.8028C36.7888 20.8012 36.7554 20.8012 36.722 20.8028Z" fill="white"/>
</svg>
